<?xml version="1.0" encoding="UTF-8" standalone="no"?>
<!-- Created with Inkscape (http://www.inkscape.org/) -->

<svg
   width="2560"
   height="1440"
   viewBox="0 0 677.33332 381"
   version="1.1"
   id="svg5"
   sodipodi:docname="background.svg"
   inkscape:export-filename="background.svg"
   inkscape:export-xdpi="96"
   inkscape:export-ydpi="96"
   xmlns:inkscape="http://www.inkscape.org/namespaces/inkscape"
   xmlns:sodipodi="http://sodipodi.sourceforge.net/DTD/sodipodi-0.dtd"
   xmlns="http://www.w3.org/2000/svg"
   xmlns:svg="http://www.w3.org/2000/svg">
  <sodipodi:namedview
     id="namedview7"
     pagecolor="#505050"
     bordercolor="#ffffff"
     borderopacity="1"
     inkscape:showpageshadow="0"
     inkscape:pageopacity="0"
     inkscape:pagecheckerboard="1"
     inkscape:deskcolor="#505050"
     inkscape:document-units="mm"
     showgrid="false" />
  <defs
     id="defs2" />
  <g
     inkscape:label="Layer 1"
     inkscape:groupmode="layer"
     id="layer1">
    <circle
       style="fill:#000000;fill-opacity:0;stroke:#000000;stroke-width:10.265;stroke-dasharray:none;stroke-opacity:1"
       id="path176"
       cx="338.66666"
       cy="190.5"
       r="258.44757" />
    <circle
       style="fill:#000000;fill-opacity:0;stroke:#000000;stroke-width:10.265;stroke-dasharray:none;stroke-opacity:1"
       id="path1775"
       cx="355.26682"
       cy="175.72543"
       r="221.76836" />
    <path
       style="fill:#000000;fill-opacity:0;stroke:#383838;stroke-width:84.8106;stroke-dasharray:none;stroke-opacity:1"
       d="M 1230.7275,1675.3413 C 994.29832,1660.2249 781.57898,1567.6065 617.11072,1408.1712 455.15183,1251.1686 358.01479,1055.2709 329.67742,828.50041 c -6.16221,-49.31324 -5.6157,-175.97808 0.96782,-224.31496 9.50271,-69.76981 21.61208,-123.01897 42.051,-184.91305 69.55879,-210.64115 211.67072,-391.617996 400.43872,-509.951066 37.72963,-23.651584 112.49193,-61.643044 151.55019,-77.012234 116.34495,-45.78107 233.77065,-68.39893 355.10825,-68.39893 253.6666,0 495.7715,100.2715 675.6,279.810168 169.7219,169.448442 270.5401,398.296542 279.4315,634.283652 6.3946,169.72062 -26.5772,323.12411 -101.4149,471.84091 -45.8225,91.0579 -98.0579,164.1634 -169.2547,236.8787 -53.9243,55.0745 -97.9584,91.606 -158.5053,131.499 -128.9908,84.9891 -272.1994,136.2042 -427.6936,152.9544 -30.5533,3.2913 -120.9109,5.847 -147.2289,4.1643 z m 152.8398,-153.8723 c 47.9321,-2.5461 83.6287,-6.9285 128.0634,-15.7223 218.0486,-43.1524 414.9945,-173.3472 539.7277,-356.7972 79.3971,-116.7725 126.5096,-243.19783 144.567,-387.94217 3.866,-30.98967 5.6556,-92.04416 3.9674,-135.35884 C 2191.3186,405.65343 2094.616,193.45994 1933.5735,41.26684 1716.9426,-163.46009 1413.0345,-241.36462 1124.7057,-166.0803 824.82325,-87.779271 589.27065,148.51871 511.64193,448.92349 c -19.53056,75.57863 -26.21595,130.28711 -26.21595,214.53264 0,84.07262 6.05251,134.9159 25.08477,210.72117 51.84704,206.5062 178.93474,386.4813 356.24496,504.4959 131.70937,87.6634 287.95869,137.954 445.94749,143.5329 9.0173,0.3185 19.8381,0.751 24.0461,0.9611 4.2081,0.2103 25.2762,-0.554 46.818,-1.6982 z"
       id="path1850"
       transform="scale(0.26458333)" />
    <path
       style="fill:#000000;fill-opacity:0;stroke:#383838;stroke-width:84.8106;stroke-dasharray:none;stroke-opacity:1"
       d="M 1213.2394,1630.6993 C 943.08322,1603.6852 727.53528,1488.6797 563.85697,1284.2214 462.08365,1157.0916 395.57474,998.23903 373.93719,830.60935 c -7.78642,-60.32275 -6.24066,-183.21318 3.05115,-242.5708 26.1412,-166.99429 89.65924,-311.11308 195.5807,-443.76143 28.03408,-35.10783 97.31359,-104.387348 132.42141,-132.421415 31.03095,-24.778624 71.8819,-54.375349 73.21362,-53.043637 0.48974,0.489727 -9.14297,9.413218 -21.40598,19.829983 C 730.24312,1.1990325 679.122,52.331935 655.67383,79.789617 599.05457,146.09045 545.04932,234.09139 510.78798,315.87944 c -30.95788,73.90211 -54.68534,163.6564 -64.14645,242.64788 -4.65397,38.85641 -3.91871,182.31877 1.12596,219.6947 13.63702,101.03648 44.73984,202.63314 89.20414,291.38338 17.13945,34.2101 28.78003,53.9913 55.57997,94.4486 131.02573,197.7969 335.53379,335.3185 570.5677,383.6785 171.6014,35.3084 354.6685,18.447 518.4085,-47.7479 95.941,-38.7859 199.375,-103.8278 267.8726,-168.445 8.161,-7.6987 15.4263,-13.4096 16.1451,-12.6908 2.0454,2.0455 -40.2175,46.3483 -72.0398,75.5168 -93.569,85.766 -207.1902,152.2077 -329.3042,192.5658 -58.3097,19.2711 -140.6059,36.4157 -199.0339,41.4643 -36.7957,3.1795 -129.1631,4.58 -151.9282,2.3036 z"
       id="path1852"
       transform="scale(0.26458333)" />
    <path
       style="fill:#000000;fill-opacity:0;stroke:#383838;stroke-width:84.8106;stroke-dasharray:none;stroke-opacity:1"
       d="m 1230.7275,1716.7482 c -26.4257,-1.4155 -79.5393,-7.5683 -111.4868,-12.9149 C 878.50371,1663.5443 671.54813,1544.9386 513.04427,1356.4235 395.85894,1217.0503 319.68215,1044.684 291.80644,855.82562 281.77824,787.88443 281.78932,655.24825 291.82907,584.75952 318.82874,395.1959 399.19319,216.1586 521.5003,73.093935 609.00809,-29.265367 708.89116,-107.57045 830.59236,-169.22421 c 51.12471,-25.89975 83.44995,-39.5656 132.14927,-55.86755 254.91847,-85.33321 528.29157,-65.46717 767.49077,55.77359 96.2938,48.80758 175.4868,106.39035 253.7588,184.512824 100.6891,100.496706 172.9649,210.920796 225.8125,344.999676 47.6486,120.88866 69.3421,245.96475 66.2479,381.95841 -3.3567,147.53024 -34.7778,278.55086 -98.5728,411.03106 -50.2454,104.3425 -112.1198,190.7731 -196.9385,275.098 -157.5872,156.6697 -361.0027,254.9833 -583.6755,282.0987 -33.7223,4.1064 -135.5146,8.0079 -166.1373,6.3677 z M 978.24257,1534.062 C 926.39075,1509.6956 894.2922,1493.6867 874.2175,1482.1802 661.27217,1360.123 503.71638,1159.0036 436.03072,922.83624 c -7.48602,-26.12006 -7.4291,-16.10862 0.0685,12.04091 34.76732,130.53365 91.64994,241.82605 174.01075,340.45675 97.89933,117.2387 216.73114,203.4073 351.73751,255.0556 23.94766,9.1614 31.83553,10.9283 16.39513,3.6725 z m 405.54343,-54.1839 c 124.2543,-7.9709 224.9467,-34.7503 328.9583,-87.4871 79.0118,-40.0612 145.8578,-88.745 209.8789,-152.8544 88.6598,-88.7821 155.3139,-197.2353 195.5194,-318.13047 18.7387,-56.34603 34.3654,-133.15252 38.6937,-190.18347 3.035,-39.98944 1.1182,-134.44761 -3.4289,-168.96731 C 2129.8625,383.51059 2053.0298,223.01456 1930.6189,96.871744 1688.507,-152.62143 1320.2534,-222.47821 1003.2253,-79.052497 837.39321,-4.0289166 698.0925,129.49868 614.47729,293.58437 c -43.47389,85.31274 -73.72646,185.68959 -83.32343,276.46381 -4.08203,38.61041 -4.64989,142.53645 -0.98254,179.8177 13.22385,134.43018 66.42682,274.92692 147.31218,389.01732 50.52512,71.2667 127.33026,146.9336 200.43114,197.4607 120.3194,83.1645 267.13036,133.9729 414.18446,143.3411 41.5135,2.6446 53.092,2.669 91.6869,0.1932 z m 616.6951,-196.1397 c 8.0727,-11.0878 8.0888,-12.6232 0.053,-5.0362 -4.3887,4.1434 -7.9794,8.3241 -7.9794,9.2906 0,3.5614 3.6705,1.5914 7.9267,-4.2544 z"
       id="path1856"
       transform="scale(0.26458333)" />
    <rect
       style="fill:#000000;fill-opacity:0;stroke:#373737;stroke-width:10.265;stroke-dasharray:none;stroke-opacity:1"
       id="rect2685"
       width="98.714104"
       height="98.714104"
       x="239.82187"
       y="130.24385" />
    <rect
       style="fill:#000000;fill-opacity:0;stroke:#383838;stroke-width:10.265;stroke-dasharray:none;stroke-opacity:1"
       id="rect2687"
       width="103.2371"
       height="167.04114"
       x="395.59882"
       y="47.960968" />
    <rect
       style="fill:#000000;fill-opacity:0;stroke:#383838;stroke-width:10.265;stroke-dasharray:none;stroke-opacity:1"
       id="rect2754"
       width="238.21219"
       height="9.2174244"
       x="238.63765"
       y="282.35641" />
    <path
       style="fill:#000000;fill-opacity:0;stroke:#383838;stroke-width:4.76035;stroke-opacity:1"
       d="m 1994.4192,1287.7322 -0.5899,-0.599 1.1528,-1.2204 c 3.1391,-3.3232 8.6516,-9.1906 9.7331,-10.3596 0.6701,-0.7244 1.2414,-1.2939 1.2696,-1.2657 0.06,0.06 -4.2248,5.5781 -8.2164,10.5836 l -2.7592,3.46 z"
       id="path310"
       transform="scale(0.26458333)" />
  </g>
</svg>
